<svg width="128" height="128" viewBox="0 0 128 128" xmlns="http://www.w3.org/2000/svg">
  <!-- Background circle -->
  <circle cx="64" cy="64" r="60" fill="#007bff" stroke="#0056b3" stroke-width="4"/>
  
  <!-- Chat bubble -->
  <path d="M30 40 L30 70 L45 70 L50 80 L55 70 L70 70 L70 40 Z" fill="white" stroke="#0056b3" stroke-width="2"/>
  
  <!-- AI brain/neural network representation -->
  <circle cx="85" cy="45" r="8" fill="#28a745" stroke="#1e7e34" stroke-width="2"/>
  <circle cx="95" cy="55" r="6" fill="#28a745" stroke="#1e7e34" stroke-width="2"/>
  <circle cx="85" cy="65" r="6" fill="#28a745" stroke="#1e7e34" stroke-width="2"/>
  <circle cx="75" cy="55" r="6" fill="#28a745" stroke="#1e7e34" stroke-width="2"/>
  
  <!-- Connection lines -->
  <line x1="85" y1="37" x2="95" y2="49" stroke="#28a745" stroke-width="2"/>
  <line x1="85" y1="37" x2="75" y2="49" stroke="#28a745" stroke-width="2"/>
  <line x1="95" y1="61" x2="85" y2="59" stroke="#28a745" stroke-width="2"/>
  <line x1="75" y1="61" x2="85" y2="59" stroke="#28a745" stroke-width="2"/>
  
  <!-- Chat dots -->
  <circle cx="40" cy="50" r="2" fill="#6c757d"/>
  <circle cx="45" cy="50" r="2" fill="#6c757d"/>
  <circle cx="50" cy="50" r="2" fill="#6c757d"/>
  
  <!-- Page icon -->
  <rect x="35" y="55" width="25" height="12" fill="#f8f9fa" stroke="#6c757d" stroke-width="1" rx="2"/>
  <line x1="38" y1="58" x2="57" y2="58" stroke="#6c757d" stroke-width="1"/>
  <line x1="38" y1="61" x2="52" y2="61" stroke="#6c757d" stroke-width="1"/>
  <line x1="38" y1="64" x2="55" y2="64" stroke="#6c757d" stroke-width="1"/>
</svg>
